<?xml version="1.0" encoding="UTF-8" standalone="no"?>
<!-- Creator: CorelDRAW -->

<svg
   xmlns:dc="http://purl.org/dc/elements/1.1/"
   xmlns:cc="http://creativecommons.org/ns#"
   xmlns:rdf="http://www.w3.org/1999/02/22-rdf-syntax-ns#"
   xmlns:svg="http://www.w3.org/2000/svg"
   xmlns="http://www.w3.org/2000/svg"
   xmlns:sodipodi="http://sodipodi.sourceforge.net/DTD/sodipodi-0.dtd"
   xmlns:inkscape="http://www.inkscape.org/namespaces/inkscape"
   id="svg2"
   style="fill-rule:evenodd;text-rendering:geometricPrecision;image-rendering:optimizeQuality;clip-rule:evenodd;shape-rendering:geometricPrecision"
   sodipodi:modified="true"
   sodipodi:docname="film.svg"
   xml:space="preserve"
   sodipodi:version="0.32"
   version="1.0"
   inkscape:output_extension="org.inkscape.output.svg.inkscape"
   inkscape:version="0.48.5 r10040"
   viewBox="0 0 210 297"
   width="100%"
   height="100%"><sodipodi:namedview
     id="base"
     bordercolor="#666666"
     inkscape:pageshadow="2"
     guidetolerance="10.0"
     pagecolor="#ffffff"
     gridtolerance="10.0"
     inkscape:zoom="1.0132605"
     objecttolerance="10.0"
     borderopacity="1.0"
     inkscape:current-layer="svg2"
     inkscape:cx="-190.13768"
     inkscape:cy="105.37638"
     inkscape:window-y="12"
     inkscape:window-x="-1"
     inkscape:window-height="850"
     inkscape:pageopacity="0.0"
     inkscape:window-width="1113"
     showgrid="false"
     inkscape:window-maximized="0" /><defs
     id="defs4"><style
       id="style6"
       type="text/css">
    .str0 {stroke:#1F1A17;stroke-width:0.0762}
    .fil0 {fill:#1F1A17}
    .fil1 {fill:white}
  </style></defs><rect
     ry="1.875"
     rx="1.875"
     y="256.64127"
     x="16.777521"
     height="234.8853"
     width="177.64435"
     id="rect9033"
     style="fill:#94ccf9;fill-opacity:1;stroke:none" /><path
     inkscape:connector-curvature="0"
     id="path9035"
     d="M 22.962627,325.72517 21.712087,492.51348 204.291,489.4248 c 0,0 -15.00649,-58.68476 -62.52702,-63.31777 C 94.243435,421.47402 82.988571,450.81641 54.22614,409.11934 25.463708,367.42225 22.962627,325.72517 22.962627,325.72517 z"
     style="fill:#00a500;fill-opacity:1;stroke:none" /><path
     transform="matrix(1.3617021,0,0,1.3617021,-51.319477,169.09881)"
     d="m 185.53966,85.307152 a 23.192457,23.192457 0 1 1 -46.38492,0 23.192457,23.192457 0 1 1 46.38492,0 z"
     sodipodi:ry="23.192457"
     sodipodi:rx="23.192457"
     sodipodi:cy="85.307152"
     sodipodi:cx="162.3472"
     id="path9037"
     style="fill:#ffcc00;fill-opacity:1;stroke:none"
     sodipodi:type="arc" /><rect
     ry="1.875"
     rx="1.875"
     y="-226.0639"
     x="16.777521"
     height="234.8853"
     width="177.64435"
     id="rect9027"
     style="fill:#94ccf9;fill-opacity:1;stroke:none" /><path
     inkscape:connector-curvature="0"
     id="path9029"
     d="M 22.962627,-156.98 21.712087,9.8083062 204.291,6.7196262 c 0,0 -15.00649,-58.6847602 -62.52702,-63.3177702 -47.520545,-4.63301 -58.775409,24.70938 -87.53784,-16.98769 C 25.463708,-115.28292 22.962627,-156.98 22.962627,-156.98 z"
     style="fill:#00a500;fill-opacity:1;stroke:none" /><path
     transform="matrix(1.3617021,0,0,1.3617021,-51.319477,-313.60636)"
     d="m 185.53966,85.307152 a 23.192457,23.192457 0 1 1 -46.38492,0 23.192457,23.192457 0 1 1 46.38492,0 z"
     sodipodi:ry="23.192457"
     sodipodi:rx="23.192457"
     sodipodi:cy="85.307152"
     sodipodi:cx="162.3472"
     id="path9031"
     style="fill:#ffcc00;fill-opacity:1;stroke:none"
     sodipodi:type="arc" /><rect
     style="fill:#94ccf9;fill-opacity:1;stroke:none"
     id="rect3854"
     width="177.64435"
     height="234.8853"
     x="16.777521"
     y="18.690523"
     rx="1.875"
     ry="1.875" /><path
     style="fill:#00a500;fill-opacity:1;stroke:none"
     d="M 22.962627,87.774435 21.712087,254.56274 204.291,251.47406 c 0,0 -15.00649,-58.68476 -62.52702,-63.31777 C 94.243435,183.52328 82.988571,212.86567 54.22614,171.1686 25.463708,129.47151 22.962627,87.774435 22.962627,87.774435 z"
     id="path3078"
     inkscape:connector-curvature="0" /><path
     sodipodi:type="arc"
     style="fill:#ffcc00;fill-opacity:1;stroke:none"
     id="path3852"
     sodipodi:cx="162.3472"
     sodipodi:cy="85.307152"
     sodipodi:rx="23.192457"
     sodipodi:ry="23.192457"
     d="m 185.53966,85.307152 a 23.192457,23.192457 0 1 1 -46.38492,0 23.192457,23.192457 0 1 1 46.38492,0 z"
     transform="matrix(1.3617021,0,0,1.3617021,-51.319477,-68.851929)" /><path
     id="rect10"
     style="fill:#000000;stroke:#1f1a17;stroke-width:0.55177999"
     d="m 253.2945,-473.4964 -10.091,0 0,9.96 c 0,3.01 -2.42,5.43 -5.428,5.43 l -25.993,0 c -3.008,0 -5.428,-2.42 -5.428,-5.43 l 0,-9.96 -198.36,0 0,12.2 c 0,3 -2.42,5.42 -5.43,5.42 l -25.93,0 c -3.01,0 -5.43,-2.42 -5.43,-5.42 l 0,-12.2 -8.36,0 0,1246.9 62.71,0.04 0,-29.95 162.92,0 -0.001,29.95 64.822,0 -1e-4,-1246.9 z m -10.091,33.78 0,16.73 c 0,3.01 -2.42,5.5 -5.428,5.5 l -25.993,0 c -3.008,0 -5.428,-2.49 -5.428,-5.5 l 0,-16.73 c 0,-3.01 2.42,-5.43 5.428,-5.43 l 25.993,0 c 3.008,0 5.428,2.42 5.428,5.43 z m 0,40.56 0,16.79 c 0,3.01 -2.42,5.43 -5.428,5.43 l -25.993,0 c -3.008,0 -5.428,-2.42 -5.428,-5.43 l 0,-16.79 c 0,-3.01 2.42,-5.43 5.428,-5.43 l 25.993,0 c 3.008,0 5.428,2.42 5.428,5.43 z m 0,40.61 0,16.74 c 0,3 -2.42,5.42 -5.428,5.42 l -25.993,0 c -3.008,0 -5.428,-2.42 -5.428,-5.42 l 0,-16.74 c 0,-3 2.42,-5.43 5.428,-5.43 l 25.993,0 c 3.008,0 5.428,2.43 5.428,5.43 z m 0,40.56 0,16.79 c 0,3.01 -2.42,5.43 -5.428,5.43 l -25.993,0 c -3.008,0 -5.428,-2.42 -5.428,-5.43 l 0,-16.79 c 0,-3.01 2.42,-5.43 5.428,-5.43 l 25.993,0 c 3.008,0 5.428,2.42 5.428,5.43 z m 0,40.61 0,16.74 c 0,3 -2.42,5.43 -5.428,5.43 l -25.993,0 c -3.008,0 -5.428,-2.43 -5.428,-5.43 l 0,-16.74 c 0,-3 2.42,-5.42 5.428,-5.42 l 25.993,0 c 3.008,0 5.428,2.42 5.428,5.42 z m 0,40.56 0,16.79 c 0,3.01 -2.42,5.43 -5.428,5.43 l -25.993,0 c -3.008,0 -5.428,-2.42 -5.428,-5.43 l 0,-16.79 c 0,-3.01 2.42,-5.43 5.428,-5.43 l 25.993,0 c 3.008,0 5.428,2.42 5.428,5.43 z m 0,40.62 0,16.73 c 0,3.01 -2.42,5.43 -5.428,5.43 l -25.993,0 c -3.008,0 -5.428,-2.42 -5.428,-5.43 l 0,-16.73 c 0,-3.01 2.42,-5.43 5.428,-5.43 l 25.993,0 c 3.008,0 5.428,2.42 5.428,5.43 z m 0,40.55 0,16.8 c 0,3 -2.42,5.42 -5.428,5.42 l -25.993,0 c -3.008,0 -5.428,-2.42 -5.428,-5.42 l 0,-16.8 c 0,-3.01 2.42,-5.43 5.428,-5.43 l 25.993,0 c 3.008,0 5.428,2.42 5.428,5.43 z m 0,40.62 0,16.73 c 0,3.01 -2.42,5.43 -5.428,5.43 l -25.993,0 c -3.008,0 -5.428,-2.42 -5.428,-5.43 l 0,-16.73 c 0,-3.01 2.42,-5.5 5.428,-5.5 l 25.993,0 c 3.008,0 5.428,2.49 5.428,5.5 z m 0,40.55 0,16.797 c 0,3.008 -2.42,5.428 -5.428,5.428 l -25.993,0 c -3.008,0 -5.428,-2.42 -5.428,-5.428 l 0,-16.797 c 0,-3.01 2.42,-5.43 5.428,-5.43 l 25.993,0 c 3.008,0 5.428,2.42 5.428,5.43 z m 0,40.554 0,16.796 c 0,3.008 -2.42,5.429 -5.428,5.429 l -25.993,0 c -3.008,0 -5.428,-2.421 -5.428,-5.429 l 0,-16.796 c 0,-3.008 2.42,-5.428 5.428,-5.428 l 25.993,0 c 3.008,0 5.428,2.42 5.428,5.428 z m 0,40.617 0,16.797 c 0,3.008 -2.42,5.428 -5.428,5.428 l -25.993,0 c -3.008,0 -5.428,-2.42 -5.428,-5.428 l 0,-16.797 c 0,-3.008 2.42,-5.428 5.428,-5.428 l 25.993,0 c 3.008,0 5.428,2.421 5.428,5.428 z m 0,40.554 0,16.796 c 0,3.008 -2.42,5.429 -5.428,5.429 l -25.993,0 c -3.008,0 -5.428,-2.421 -5.428,-5.429 l 0,-16.796 c 0,-3.0079 2.42,-5.4284 5.428,-5.4284 l 25.993,4.6e-5 c 3.008,-1.7e-5 5.428,2.4206 5.428,5.4285 z m 0,40.618 0,16.796 c 0,3.008 -2.42,5.428 -5.428,5.428 l -25.993,0 c -3.008,0 -5.428,-2.42 -5.428,-5.428 l 0,-16.796 c 0,-3.008 2.42,-5.429 5.428,-5.429 l 25.993,0 c 3.008,0 5.428,2.421 5.428,5.429 z m 0,40.553 0,16.794 c 0,3.01 -2.42,5.43 -5.428,5.43 l -25.993,0 c -3.008,0 -5.428,-2.42 -5.428,-5.43 l 0,-16.794 c 0,-3.008 2.42,-5.428 5.428,-5.428 l 25.993,0 c 3.008,0 5.428,2.42 5.428,5.428 z m 0,40.614 0,16.8 c 0,3.01 -2.42,5.43 -5.428,5.43 l -25.993,0 c -3.008,0 -5.428,-2.42 -5.428,-5.43 l 0,-16.8 c 0,-3 2.42,-5.42 5.428,-5.42 l 25.993,0 c 3.008,0 5.428,2.42 5.428,5.42 z m 0,40.56 0,16.79 c 0,3.01 -2.42,5.43 -5.428,5.43 l -25.993,0 c -3.008,0 -5.428,-2.42 -5.428,-5.43 l 0,-16.79 c 0,-3.01 2.42,-5.43 5.428,-5.43 l 25.993,0 c 3.008,0 5.428,2.42 5.428,5.43 z m 0,40.61 0,16.8 c 0,3.01 -2.42,5.43 -5.428,5.43 l -25.993,0 c -3.008,0 -5.428,-2.42 -5.428,-5.43 l 0,-16.8 c 0,-3 2.42,-5.42 5.428,-5.42 l 25.993,0 c 3.008,0 5.428,2.42 5.428,5.42 z m 0,40.56 0,16.79 c 0,3.01 -2.42,5.43 -5.428,5.43 l -25.993,0 c -3.008,0 -5.428,-2.42 -5.428,-5.43 l 0,-16.79 c 0,-3.01 2.42,-5.43 5.428,-5.43 l 25.993,0 c 3.008,0 5.428,2.42 5.428,5.43 z m 0,40.62 0,16.79 c 0,3.01 -2.42,5.43 -5.428,5.43 l -25.993,0 c -3.008,0 -5.428,-2.42 -5.428,-5.43 l 0,-16.79 c 0,-3.01 2.42,-5.43 5.428,-5.43 l 25.993,0 c 3.008,0 5.428,2.42 5.428,5.43 z m 0,40.55 0,16.8 c 0,3 -2.42,5.42 -5.428,5.42 l -25.993,0 c -3.008,0 -5.428,-2.42 -5.428,-5.42 l 0,-16.8 c 0,-3.01 2.42,-5.43 5.428,-5.43 l 25.993,0 c 3.008,0 5.428,2.42 5.428,5.43 z m 0,40.62 0,16.79 c 0,3.01 -2.42,5.43 -5.428,5.43 l -25.993,0 c -3.008,0 -5.428,-2.42 -5.428,-5.43 l 0,-16.79 c 0,-3.01 2.42,-5.43 5.428,-5.43 l 25.993,0 c 3.008,0 5.428,2.42 5.428,5.43 z m 0,40.55 0,16.8 c 0,3 -2.42,5.43 -5.428,5.43 l -25.993,0 c -3.008,0 -5.428,-2.43 -5.428,-5.43 l 0,-16.8 c 0,-3.01 2.42,-5.43 5.428,-5.43 l 25.993,0 c 3.008,0 5.428,2.42 5.428,5.43 z m 0,40.62 0,16.73 c 0,3.01 -2.42,5.43 -5.428,5.43 l -25.993,0 c -3.008,0 -5.428,-2.42 -5.428,-5.43 l 0,-16.73 c 0,-3.01 2.42,-5.43 5.428,-5.43 l 25.993,0 c 3.008,0 5.428,2.42 5.428,5.43 z m 0,40.55 0,16.8 c 0,3.01 -2.42,5.43 -5.428,5.43 l -25.993,0 c -3.008,0 -5.428,-2.42 -5.428,-5.43 l 0,-16.8 c 0,-3.01 2.42,-5.43 5.428,-5.43 l 25.993,0 c 3.008,0 5.428,2.42 5.428,5.43 z m 0,40.62 0,16.73 c 0,3.01 -2.42,5.43 -5.428,5.43 l -25.993,0 c -3.008,0 -5.428,-2.42 -5.428,-5.43 l 0,-16.73 c 0,-3.01 2.42,-5.43 5.428,-5.43 l 25.993,0 c 3.008,0 5.428,2.42 5.428,5.43 z m 0,40.55 0,16.8 c 0,3.01 -2.42,5.43 -5.428,5.43 l -25.993,0 c -3.008,0 -5.428,-2.42 -5.428,-5.43 l 0,-16.8 c 0,-3.01 2.42,-5.43 5.428,-5.43 l 25.993,0 c 3.008,0 5.428,2.43 5.428,5.43 z m 0,40.62 0,16.73 c 0,3.01 -2.42,5.43 -5.428,5.43 l -25.993,0 c -3.008,0 -5.428,-2.42 -5.428,-5.43 l 0,-16.73 c 0,-3.01 2.42,-5.43 5.428,-5.43 l 25.993,0 c 3.008,0 5.428,2.42 5.428,5.43 z m 0,40.55 0,16.8 c 0,3.01 -2.42,5.43 -5.428,5.43 l -25.993,0 c -3.008,0 -5.428,-2.42 -5.428,-5.43 l 0,-16.8 c 0,-3 2.42,-5.42 5.428,-5.42 l 25.993,0 c 3.008,0 5.428,2.42 5.428,5.42 z m 0,40.56 0,16.79 c 0,3.01 -2.42,5.43 -5.428,5.43 l -25.993,0 c -3.008,0 -5.428,-2.42 -5.428,-5.43 l 0,-16.79 c 0,-3.01 2.42,-5.43 5.428,-5.43 l 25.993,0 c 3.008,0 5.428,2.42 5.428,5.43 z m -53.262,-1188 0,217.2 -162.92,0 0,-217.2 162.92,0 z m 0,238.98 0,217.2 -162.92,0 0,-217.2 162.92,0 z m 0,239.04 0,217.2 -162.92,0 0,-217.2 162.92,0.002 z m 0,239.04 0,217.14 -162.92,0 0,-217.14 162.92,0 z m 0,238.98 0,217.21 -162.92,0 0,-217.21 162.92,0 z m -181.95,-942.69 0,16.73 c 0,3.01 -2.42,5.43 -5.43,5.43 l -25.93,0 c -3.01,0 -5.43,-2.42 -5.43,-5.43 l 0,-16.73 c 0,-3.01 2.42,-5.43 5.43,-5.43 l 25.93,0 c 3.01,0 5.43,2.42 5.43,5.43 z m 0,40.55 0,16.8 c 0,3.01 -2.42,5.43 -5.43,5.43 l -25.93,0 c -3.01,0 -5.43,-2.42 -5.43,-5.43 l 0,-16.8 c 0,-3.01 2.42,-5.43 5.43,-5.43 l 25.93,0 c 3.01,0 5.43,2.42 5.43,5.43 z m 0,40.62 0,16.73 c 0,3.01 -2.42,5.43 -5.43,5.43 l -25.93,0 c -3.01,0 -5.43,-2.42 -5.43,-5.43 l 0,-16.73 c 0,-3.01 2.42,-5.43 5.43,-5.43 l 25.93,0 c 3.01,0 5.43,2.42 5.43,5.43 z m 0,40.55 0,16.8 c 0,3.01 -2.42,5.43 -5.43,5.43 l -25.93,0 c -3.01,0 -5.43,-2.42 -5.43,-5.43 l 0,-16.8 c 0,-3.01 2.42,-5.43 5.43,-5.43 l 25.93,0 c 3.01,0 5.43,2.42 5.43,5.43 z m 0,40.62 0,16.73 c 0,3.01 -2.42,5.43 -5.43,5.43 l -25.93,0 c -3.01,0 -5.43,-2.42 -5.43,-5.43 l 0,-16.73 c 0,-3.01 2.42,-5.43 5.43,-5.43 l 25.93,0 c 3.01,0 5.43,2.42 5.43,5.43 z m 0,40.55 0,16.8 c 0,3.01 -2.42,5.43 -5.43,5.43 l -25.93,0 c -3.01,0 -5.43,-2.42 -5.43,-5.43 l 0,-16.8 c 0,-3 2.42,-5.43 5.43,-5.43 l 25.93,0 c 3.01,0 5.43,2.43 5.43,5.43 z m 0,40.56 0,16.79 c 0,3.01 -2.42,5.43 -5.43,5.43 l -25.93,0 c -3.01,0 -5.43,-2.42 -5.43,-5.43 l 0,-16.79 c 0,-3.01 2.42,-5.43 5.43,-5.43 l 25.93,0 c 3.01,0 5.43,2.42 5.43,5.43 z m 0,40.61 0,16.8 c 0,3.01 -2.42,5.43 -5.43,5.43 l -25.93,0 c -3.01,0 -5.43,-2.42 -5.43,-5.43 l 0,-16.8 c 0,-3 2.42,-5.42 5.43,-5.42 l 25.93,0 c 3.01,0 5.43,2.42 5.43,5.42 z m 0,40.56 0,16.79 c 0,3.01 -2.42,5.43 -5.43,5.43 l -25.93,0 c -3.01,0 -5.43,-2.42 -5.43,-5.43 l 0,-16.79 c 0,-3.01 2.42,-5.43 5.43,-5.43 l 25.93,0 c 3.01,0 5.43,2.42 5.43,5.43 z m 0,40.62 0,16.792 c 0,3.008 -2.42,5.428 -5.43,5.428 l -25.93,0 c -3.01,0 -5.43,-2.42 -5.43,-5.428 l 0,-16.792 c 0,-3.01 2.42,-5.43 5.43,-5.43 l 25.93,0 c 3.01,0 5.43,2.42 5.43,5.43 z m 0,40.549 0,16.796 c 0,3.008 -2.42,5.429 -5.43,5.429 l -25.93,0 c -3.01,0 -5.43,-2.421 -5.43,-5.429 l 0,-16.796 c 0,-3.008 2.42,-5.428 5.43,-5.428 l 25.93,0 c 3.01,0 5.43,2.42 5.43,5.428 z m 0,40.618 0,16.796 c 0,3.008 -2.42,5.428 -5.43,5.428 l -25.93,0 c -3.01,0 -5.43,-2.42 -5.43,-5.428 l 0,-16.796 c 0,-3.008 2.42,-5.429 5.43,-5.429 l 25.93,0 c 3.01,0 5.43,2.421 5.43,5.429 z m 0,40.553 0,16.797 c 0,3.008 -2.42,5.428 -5.43,5.428 l -25.93,0 c -3.01,0 -5.43,-2.42 -5.43,-5.428 l 0,-16.797 c 0,-3.0076 2.42,-5.4281 5.43,-5.4281 l 25.93,0 c 3.01,0 5.43,2.4205 5.43,5.4284 z m 0,40.618 0,16.796 c 0,3.008 -2.42,5.428 -5.43,5.428 l -25.93,0 c -3.01,0 -5.43,-2.42 -5.43,-5.428 l 0,-16.796 c 0,-3.008 2.42,-5.429 5.43,-5.429 l 25.93,0 c 3.01,0 5.43,2.421 5.43,5.429 z m 0,40.553 0,16.799 c 0,3.01 -2.42,5.43 -5.43,5.43 l -25.93,0 c -3.01,0 -5.43,-2.42 -5.43,-5.43 l 0,-16.799 c 0,-3.007 2.42,-5.428 5.43,-5.428 l 25.93,0 c 3.01,0 5.43,2.421 5.43,5.428 z m 0,40.619 0,16.8 c 0,3 -2.42,5.42 -5.43,5.42 l -25.93,0 c -3.01,0 -5.43,-2.42 -5.43,-5.42 l 0,-16.8 c 0,-3.01 2.42,-5.43 5.43,-5.43 l 25.93,0 c 3.01,0 5.43,2.42 5.43,5.43 z m 0,40.55 0,16.8 c 0,3.01 -2.42,5.43 -5.43,5.43 l -25.93,0 c -3.01,0 -5.43,-2.42 -5.43,-5.43 l 0,-16.8 c 0,-3.01 2.42,-5.43 5.43,-5.43 l 25.93,0 c 3.01,0 5.43,2.42 5.43,5.43 z m 0,40.62 0,16.8 c 0,3 -2.42,5.42 -5.43,5.42 l -25.93,0 c -3.01,0 -5.43,-2.42 -5.43,-5.42 l 0,-16.8 c 0,-3.01 2.42,-5.43 5.43,-5.43 l 25.93,0 c 3.01,0 5.43,2.42 5.43,5.43 z m 0,40.55 0,16.8 c 0,3.01 -2.42,5.43 -5.43,5.43 l -25.93,0 c -3.01,0 -5.43,-2.42 -5.43,-5.43 l 0,-16.8 c 0,-3 2.42,-5.42 5.43,-5.42 l 25.93,0 c 3.01,0 5.43,2.42 5.43,5.42 z m 0,40.62 0,16.8 c 0,3.01 -2.42,5.43 -5.43,5.43 l -25.93,0 c -3.01,0 -5.43,-2.42 -5.43,-5.43 l 0,-16.8 c 0,-3.01 2.42,-5.43 5.43,-5.43 l 25.93,0 c 3.01,0 5.43,2.42 5.43,5.43 z m 0,40.55 0,16.8 c 0,3.01 -2.42,5.43 -5.43,5.43 l -25.93,0 c -3.01,0 -5.43,-2.42 -5.43,-5.43 l 0,-16.8 c 0,-3 2.42,-5.42 5.43,-5.42 l 25.93,0 c 3.01,0 5.43,2.42 5.43,5.42 z m 0,40.62 0,16.73 c 0,3.01 -2.42,5.43 -5.43,5.43 l -25.93,0 c -3.01,0 -5.43,-2.42 -5.43,-5.43 l 0,-16.73 c 0,-3.01 2.42,-5.43 5.43,-5.43 l 25.93,0 c 3.01,0 5.43,2.42 5.43,5.43 z m 0,40.56 0,16.79 c 0,3.01 -2.42,5.43 -5.43,5.43 l -25.93,0 c -3.01,0 -5.43,-2.42 -5.43,-5.43 l 0,-16.79 c 0,-3.01 2.42,-5.43 5.43,-5.43 l 25.93,0 c 3.01,0 5.43,2.42 5.43,5.43 z m 0,40.61 0,16.74 c 0,3 -2.42,5.42 -5.43,5.42 l -25.93,0 c -3.01,0 -5.43,-2.42 -5.43,-5.42 l 0,-16.74 c 0,-3 2.42,-5.43 5.43,-5.43 l 25.93,0 c 3.01,0 5.43,2.43 5.43,5.43 z m 0,40.56 0,16.79 c 0,3.01 -2.42,5.43 -5.43,5.43 l -25.93,0 c -3.01,0 -5.43,-2.42 -5.43,-5.43 l 0,-16.79 c 0,-3.01 2.42,-5.43 5.43,-5.43 l 25.93,0 c 3.01,0 5.43,2.42 5.43,5.43 z m 0,40.61 0,16.74 c 0,3 -2.42,5.43 -5.43,5.43 l -25.93,0 c -3.01,0 -5.43,-2.43 -5.43,-5.43 l 0,-16.74 c 0,-3 2.42,-5.42 5.43,-5.42 l 25.93,0 c 3.01,0 5.43,2.42 5.43,5.42 z m 0,40.56 0,16.79 c 0,3.01 -2.42,5.43 -5.43,5.43 l -25.93,0 c -3.01,0 -5.43,-2.42 -5.43,-5.43 l 0,-16.79 c 0,-3.01 2.42,-5.43 5.43,-5.43 l 25.93,0 c 3.01,0 5.43,2.42 5.43,5.43 z m 0,40.55 0,16.8 c 0,3.01 -2.42,5.43 -5.43,5.43 l -25.93,0 c -3.01,0 -5.43,-2.42 -5.43,-5.43 l 0,-16.8 c 0,-3.01 2.42,-5.43 5.43,-5.43 l 25.93,0 c 3.01,0 5.43,2.42 5.43,5.43 z m 0,40.62 0,16.8 c 0,3 -2.42,5.42 -5.43,5.42 l -25.93,0 c -3.01,0 -5.43,-2.42 -5.43,-5.42 l 0,-16.8 c 0,-3.01 2.42,-5.43 5.43,-5.43 l 25.93,0 c 3.01,0 5.43,2.42 5.43,5.43 z m 0,40.55 0,16.8 c 0,3.01 -2.42,5.43 -5.43,5.43 l -25.93,0 c -3.01,0 -5.43,-2.42 -5.43,-5.43 l 0,-16.8 c 0,-3.01 2.42,-5.43 5.43,-5.43 l 25.93,0 c 3.01,0 5.43,2.42 5.43,5.43 z"
     inkscape:connector-curvature="0" /><metadata
     id="metadata3076"><rdf:RDF><cc:Work><dc:format>image/svg+xml</dc:format><dc:type
           rdf:resource="http://purl.org/dc/dcmitype/StillImage" /><cc:license
           rdf:resource="http://creativecommons.org/licenses/publicdomain/" /><dc:publisher><cc:Agent
             rdf:about="http://openclipart.org/"><dc:title>Openclipart</dc:title></cc:Agent></dc:publisher><dc:title></dc:title><dc:date>2007-01-03T06:08:48</dc:date><dc:description>Part of movie film for further use</dc:description><dc:source>https://openclipart.org/detail/2757/movie-tape-by-bugmenot</dc:source><dc:creator><cc:Agent><dc:title>bugmenot</dc:title></cc:Agent></dc:creator><dc:subject><rdf:Bag><rdf:li>cinema</rdf:li><rdf:li>film</rdf:li><rdf:li>frame</rdf:li><rdf:li>movie</rdf:li><rdf:li>perforation</rdf:li><rdf:li>photo</rdf:li><rdf:li>photography</rdf:li><rdf:li>tape</rdf:li></rdf:Bag></dc:subject></cc:Work><cc:License
         rdf:about="http://creativecommons.org/licenses/publicdomain/"><cc:permits
           rdf:resource="http://creativecommons.org/ns#Reproduction" /><cc:permits
           rdf:resource="http://creativecommons.org/ns#Distribution" /><cc:permits
           rdf:resource="http://creativecommons.org/ns#DerivativeWorks" /></cc:License></rdf:RDF></metadata><rect
     style="fill:none;fill-opacity:1;stroke:none"
     id="rect3856"
     width="300.02158"
     height="328.64203"
     x="-43.424175"
     y="-10.916868"
     rx="1.875"
     ry="1.875"
     inkscape:export-filename="/Users/chriswei/Downloads/film.png"
     inkscape:export-xdpi="70.106674"
     inkscape:export-ydpi="70.106674" /><rect
     style="fill:none;stroke:#000000;stroke-opacity:1"
     id="rect4204"
     width="325.6813"
     height="319.75986"
     x="-55.267132"
     y="-24.73365"
     rx="1.875"
     ry="3.7142179"
     inkscape:export-filename="/Users/chriswei/proj/vale/svn/micromanager/mmstudio/src/org/micromanager/internal/icons/film@2x.png"
     inkscape:export-xdpi="8.8400002"
     inkscape:export-ydpi="8.8400002" /><rect
     style="fill:none;stroke:#000000;stroke-width:1.09631323999999997;stroke-miterlimit:4;stroke-opacity:1;stroke-dasharray:none"
     id="rect9039"
     width="426.29456"
     height="426.29456"
     x="-104.5609"
     y="-79.948898"
     rx="2.0555873"
     ry="2.0555873"
     inkscape:export-filename="/Users/chriswei/proj/vale/svn/micromanager/mmstudio/src/org/micromanager/internal/icons/film.png"
     inkscape:export-xdpi="3.3800001"
     inkscape:export-ydpi="3.3800001" /></svg>